<?xml version="1.0" encoding="utf-8"?>
<!-- Generator: Adobe Illustrator 23.1.0, SVG Export Plug-In . SVG Version: 6.00 Build 0)  -->
<svg version="1.1" xmlns="http://www.w3.org/2000/svg" xmlns:xlink="http://www.w3.org/1999/xlink" x="0px" y="0px"
	 viewBox="0 0 595.3 841.9" style="enable-background:new 0 0 595.3 841.9;" xml:space="preserve">
<style type="text/css">
	.st0{display:none;}
	.st1{display:none;fill:#FFFFFF;}
	.st2{fill:#4B95D0;}
	.st3{fill:#66B7E6;}
	.st4{fill:#3682B9;}
	.st5{fill:#FAB07E;}
	.st6{fill:#F2ED76;}
	.st7{fill:#3682BA;}
	.st8{display:none;fill:#FDDD56;}
</style>
<g id="Layer_1" class="st0">
</g>
<g id="Layer_2">
	<path class="st1" d="M11,317.1c0-60.7,0-121.4,0-182.1c191,0,382,0,573,0c0,190.7,0,381.3,0,572c-191,0-382,0-573,0
		c0-125.1,0-250.2,0-375.4c2.7,4.8,4.7,10.2,8.3,14.2c10.4,11.4,21.3,22.4,32.2,33.3c7.7,7.7,17.1,11.6,28.2,10.6
		c13.9-1.1,23.9-8.1,29.2-20.8c5-12.1,4.4-24.5-4.4-34.6c-10.5-12-21.8-23.5-33.4-34.4c-16.5-15.6-38.3-14.4-52.5,2.6
		C15.2,306.6,13.5,312.2,11,317.1z M325.8,280.5c1.2,5,3,9.9,3.6,15c1.6,13.7-5.7,25.6-18.1,30.6c-13.2,5.3-25.1,2.6-35.2-7.6
		c-45.3-45.3-90.6-90.6-135.9-135.9c-8.2-8.2-17.4-13.3-29.6-13c-24.1,0.7-40.5,26.9-29.8,48.5c2.3,4.6,5.6,8.8,9.2,12.4
		c50.9,51.1,101.8,102.1,152.9,152.9c10,9.9,14.3,21.3,10.7,34.8c-6,22.2-34,29.5-50.6,13.6c-5.2-5-10.3-10.3-15.9-14.8
		c-19.2-15.1-48.3-4.9-54.4,18.8c-3.9,15.3,2.3,27.1,12.8,37.6c49.8,49.8,99.5,99.6,149.4,149.3c5.5,5.5,11.7,10.3,17.6,15.4
		c8.9,6,17.4,12.9,26.9,17.8c29.2,14.8,60,21.6,93,18c19-2.1,37.2-6.6,54.5-14.7c33.2-15.7,58.4-39.8,76.3-71.8
		c8.7-15.6,14.4-32.3,17.2-49.7c2.2-13.7,1.3-27.9,1.6-41.9c0.3-13.5-3-26.4-6.9-39.2c-8.3-26.6-23.2-49.3-42.8-68.9
		c-55.2-55.2-110.3-110.3-165.5-165.5c-10.4-10.4-20.8-20.8-31.2-31.2c-9.5-9.4-21.3-12.3-33.9-9.3c-26.6,6.3-34.4,39.9-16,58
		C298.9,253.2,312.3,266.9,325.8,280.5z"/>
	<path class="st2" d="M11.1,332c-0.1-5-0.2-9.2-0.3-14.2c2.6-5,4.3-10.8,7.9-15c14.2-17,36-18.2,52.5-2.6
		c11.6,11,22.9,22.4,33.4,34.4c8.9,10.1,9.5,22.5,4.4,34.6c-5.3,12.7-15.3,19.7-29.2,20.8c-11.1,0.9-20.5-2.9-28.2-10.6
		c-10.9-10.9-21.8-21.8-32.2-33.3C15.7,342.2,13.7,336.8,11.1,332z"/>
	<path class="st2" d="M312.2,638.2c-5.9-5.1-12.1-9.9-17.6-15.4c-49.9-49.7-99.6-99.5-149.4-149.3c-10.4-10.4-16.7-22.2-12.8-37.6
		c6.1-23.7,35.2-33.9,54.4-18.8c5.7,4.5,10.7,9.8,15.9,14.8c16.6,15.9,44.6,8.6,50.6-13.6c3.7-13.5-0.7-24.9-10.7-34.8
		c-51.1-50.8-102-101.8-152.9-152.9c-3.6-3.6-6.9-7.9-9.2-12.4c-10.7-21.6,5.7-47.8,29.8-48.5c12.2-0.4,21.4,4.8,29.6,13
		c45.3,45.3,90.6,90.6,135.9,135.9c10.1,10.1,22,12.9,35.2,7.6c12.4-5,19.7-16.9,18.1-30.6c-0.6-5.1-2.3-10-3.6-15
		c1.4,0.4,3,0.5,4,1.4c16.7,14.4,34,28.2,49.9,43.4c12,11.5,23,24.3,33.1,37.5c9.9,12.9,18,27.1,26.9,40.8c-2-0.2-4.1-0.1-6.1-0.5
		c-12.3-3-24.6-2.5-36.9-0.2c-24.8,4.6-45.5,16.6-61.9,35.7c-15,17.5-23.8,37.8-25.6,60.7c-1.7,21.7,2.7,42.4,13.8,61.3
		c12.6,21.7,30.3,37.8,54.1,46.6c5.3,1.8,10.6,3.6,15.9,5.4c-16.6,9.8-34.8,15.4-53.3,19.8C330.5,634.6,321.3,636.3,312.2,638.2z"/>
	<path class="st3" d="M439.7,403.6c-8.9-13.6-17.1-27.8-26.9-40.8c-10.1-13.2-21.1-26-33.1-37.5c-15.9-15.2-33.1-29.1-49.9-43.4
		c-1-0.9-2.7-0.9-4-1.4c-13.5-13.6-26.8-27.4-40.5-40.8c-18.4-18.1-10.6-51.6,16-58c12.6-3,24.4-0.2,33.9,9.3
		c10.4,10.4,20.8,20.8,31.2,31.2c55.2,55.2,110.3,110.3,165.5,165.5c19.6,19.6,34.5,42.3,42.8,68.9c4,12.7,7.3,25.7,6.9,39.2
		c-0.4,14,0.6,28.2-1.6,41.9c-2.8,17.3-8.5,34.1-17.2,49.7c-17.8,32-43.1,56.1-76.3,71.8c-17.3,8.1-35.5,12.7-54.5,14.7
		c-33,3.6-63.8-3.1-93-18c-9.5-4.8-18-11.8-26.9-17.8c9.1-1.9,18.3-3.6,27.4-5.8c18.6-4.4,36.7-10,53.3-19.8
		c0.7,0.2,1.5,0.4,2.2,0.6c7.7,0.8,15.4,2.7,23,2.2c16.8-1.1,33-4.8,48.1-12.9c21.3-11.5,36.6-28.2,47.2-49.7
		c8.8-17.9,10.3-37,8.8-56.3c-0.7-9.2-4.4-18.1-6.7-27.2c-0.3-1.2-0.6-2.5-1.1-3.7c-7.7-17.4-19-32.1-34.3-43.4
		c-11.7-8.7-24.4-15.5-39.2-17.6C440.5,404.4,440.1,404,439.7,403.6z"/>
	<path class="st4" d="M439.7,403.6c0.4,0.4,0.9,0.7,1.3,1.1c3.4,7.2,7.4,14.2,10.1,21.7c3.4,9.3,5.9,19,8.7,28.5c-2.2-2-4.3-4-6.5-6
		c-11-10.1-26.4-10.1-36,0c-9.7,10.2-9.1,25.2,1.5,35.9c13.7,13.8,27.5,27.7,41.3,41.5c0,0.4,0,0.7,0,1.1
		c-1.9,6.3-3.7,12.6-5.8,18.8c-1.6,4.6-3.6,9.1-5.5,13.7c-0.4,0.1-0.8,0.1-1.2,0.2c-3.5-1.9-7.6-3.2-10.5-5.8
		c-7-6.3-13.4-13.4-20.3-19.9c-3.1-2.9-6.6-5.6-10.4-7.2c-9.3-3.8-18.4-2.8-25.8,4.4c-7.5,7.3-12.2,16.2-6.8,26.4
		c3.3,6.4,8.2,12.3,13.3,17.5c5.8,5.9,7.3,12.6,5.2,19.9c-2,7.3-7.8,11-15.3,12c-23.8-8.9-41.4-24.9-54.1-46.6
		c-11-19-15.5-39.6-13.8-61.3c1.8-22.9,10.6-43.2,25.6-60.7c16.5-19.1,37.1-31.2,61.9-35.7c12.3-2.2,24.6-2.7,36.9,0.2
		C435.5,403.6,437.6,403.5,439.7,403.6z"/>
	<path class="st5" d="M377,607.3c7.5-1,13.2-4.7,15.3-12c2-7.3,0.6-14-5.2-19.9c-5.1-5.2-10-11.1-13.3-17.5
		c-5.3-10.3-0.7-19.2,6.8-26.4c7.4-7.2,16.5-8.2,25.8-4.4c3.8,1.6,7.4,4.3,10.4,7.2c6.9,6.5,13.3,13.6,20.3,19.9
		c2.9,2.6,6.9,3.9,10.5,5.8c-10.8,20.7-27,36.3-46.7,48.5c-2.1,1.3-3.8,3.2-5.8,4.8c-0.7-0.2-1.5-0.4-2.2-0.6
		C387.6,610.8,382.3,609,377,607.3z"/>
	<path class="st6" d="M395,613.2c1.9-1.6,3.7-3.5,5.8-4.8c19.7-12.2,35.9-27.8,46.7-48.5c0.4-0.1,0.8-0.1,1.2-0.2
		c9.1,0.1,15.4-4.1,18.3-12.1c2.7-7.4,0.4-14.1-7.1-20.4c0-0.3,0-0.7,0-1c1.5-9,4-18.1,4.1-27.1c0.2-13.6-1.2-27.3-2-40.9
		c7,6.9,13.8,14,21.3,20.4c3.5,3,8.1,5.6,12.5,6.2c10.3,1.3,15.7-3.5,19.6-15.4c2.3,9.1,5.9,18,6.7,27.2c1.5,19.3,0,38.4-8.8,56.3
		c-10.6,21.5-25.9,38.2-47.2,49.7c-15.1,8.2-31.3,11.8-48.1,12.9C410.5,616,402.7,614,395,613.2z"/>
	<path class="st7" d="M515.5,469.3c-3.9,11.9-9.3,16.7-19.6,15.4c-4.4-0.6-9-3.2-12.5-6.2c-7.5-6.4-14.2-13.6-21.3-20.4c0,0,0,0,0,0
		c-0.3-0.4-0.7-0.8-1-1.1c-0.4-0.7-0.9-1.4-1.3-2.1c-2.9-9.5-5.3-19.2-8.7-28.5c-2.7-7.5-6.7-14.5-10.1-21.7
		c14.7,2.1,27.5,8.9,39.2,17.6c15.3,11.3,26.6,26,34.3,43.4C514.9,466.8,515.1,468.1,515.5,469.3z"/>
	<path class="st5" d="M459.8,454.9c0.4,0.7,0.9,1.4,1.3,2.1c0.3,0.4,0.7,0.8,1,1.1c0,0,0,0,0,0c0.7,13.7,2.2,27.3,2,40.9
		c-0.1,9.1-2.7,18.1-4.1,27.1c-13.8-13.8-27.5-27.7-41.3-41.5c-10.6-10.7-11.2-25.7-1.5-35.9c9.6-10,25-10,36,0
		C455.5,450.9,457.6,452.9,459.8,454.9z"/>
	<path class="st7" d="M459.9,527.3c7.4,6.2,9.7,12.9,7.1,20.4c-2.9,8-9.3,12.3-18.3,12.1c1.8-4.5,3.9-9,5.5-13.7
		C456.3,539.9,458,533.6,459.9,527.3z"/>
	<path class="st8" d="M462.1,458.2c-0.3-0.4-0.7-0.8-1-1.1C461.4,457.4,461.8,457.8,462.1,458.2z"/>
</g>
</svg>
