<?xml version="1.0" encoding="utf-8"?>
<!-- Generator: Adobe Illustrator 23.1.0, SVG Export Plug-In . SVG Version: 6.00 Build 0)  -->
<svg version="1.1" id="Layer_1" xmlns="http://www.w3.org/2000/svg" xmlns:xlink="http://www.w3.org/1999/xlink" x="0px" y="0px"
	 viewBox="0 0 595.3 841.9" style="enable-background:new 0 0 595.3 841.9;" xml:space="preserve">
<style type="text/css">
	.st0{display:none;fill:#FEFEFE;}
	.st1{fill:#C0D6DF;}
	.st2{fill:#DBE9EE;}
	.st3{fill:#98BFD8;}
	.st4{fill:#E7EEF2;}
	.st5{fill:#FFFFFF;}
	.st6{display:none;fill:#FEDD55;}
</style>
<path class="st0" d="M9.8,333.7c0-60.7,0-121.4,0-182.1c191.1,0,382.1,0,573.2,0c0,190.7,0,381.4,0,572c-191.1,0-382.1,0-573.2,0
	c0-125.1,0-250.3,0-375.4c2.7,4.8,4.7,10.2,8.3,14.2c10.4,11.4,21.3,22.4,32.2,33.3c7.7,7.7,17.1,11.6,28.2,10.6
	c13.9-1.1,23.9-8.1,29.2-20.8c5-12.1,4.4-24.5-4.4-34.6c-10.5-12-21.8-23.5-33.4-34.4c-16.5-15.6-38.3-14.4-52.5,2.6
	C14,323.2,12.3,328.8,9.8,333.7z M324.9,296.9c1.2,5,3,9.9,3.6,15c1.6,13.7-5.7,25.6-18.1,30.6c-13.2,5.3-25.1,2.6-35.2-7.6
	c-45.3-45.3-90.6-90.6-135.9-135.9c-8.2-8.2-17.4-13.3-29.6-13c-24.1,0.7-40.5,26.9-29.8,48.5c2.3,4.6,5.6,8.8,9.2,12.4
	C139.9,298,190.8,349,241.9,399.9c10,9.9,14.3,21.3,10.7,34.8c-6,22.2-34,29.5-50.6,13.6c-5.2-5-10.3-10.3-15.9-14.8
	c-19.2-15.1-48.3-4.9-54.4,18.8c-3.9,15.3,2.3,27.1,12.8,37.6c49.8,49.8,99.5,99.6,149.4,149.3c5.5,5.5,11.7,10.3,17.6,15.4
	c8.9,6,17.4,12.9,26.9,17.8c29.2,14.8,60,21.6,93,18c19-2.1,37.2-6.6,54.5-14.7c33.2-15.7,58.4-39.8,76.3-71.8
	c8.7-15.6,14.4-32.3,17.2-49.7c2.2-13.7,1.3-27.9,1.6-41.9c0.3-13.5-3-26.4-6.9-39.2c-8.3-26.6-23.2-49.3-42.8-68.9
	c-55.2-55.2-110.3-110.3-165.5-165.5c-10.4-10.4-20.8-20.8-31.2-31.2c-9.5-9.4-21.3-12.3-33.9-9.3c-26.6,6.3-34.4,39.9-16,58
	C298,269.5,311.4,283.2,324.9,296.9z"/>
<g>
	<path class="st1" d="M9.8,333.7c2.5-4.9,4.2-10.5,7.7-14.6c14.2-17,36-18.2,52.5-2.6c11.6,11,22.9,22.4,33.4,34.4
		c8.9,10.1,9.5,22.5,4.4,34.6c-5.3,12.7-15.3,19.7-29.2,20.8c-11.1,0.9-20.5-2.9-28.2-10.6c-10.9-10.9-21.8-21.8-32.2-33.3
		c-3.6-4-5.6-9.4-8.3-14.2C9.8,343.4,9.8,338.6,9.8,333.7z"/>
	<path class="st1" d="M311.3,654.6c-5.9-5.1-12.1-9.9-17.6-15.4c-49.9-49.7-99.6-99.5-149.4-149.3c-10.4-10.4-16.7-22.2-12.8-37.6
		c6.1-23.7,35.2-33.9,54.4-18.8c5.7,4.5,10.7,9.8,15.9,14.8c16.6,15.9,44.6,8.6,50.6-13.6c3.7-13.5-0.7-24.9-10.7-34.8
		C190.8,349,139.9,298,89,247c-3.6-3.6-6.9-7.9-9.2-12.4c-10.7-21.6,5.7-47.8,29.8-48.5c12.2-0.4,21.4,4.8,29.6,13
		c45.3,45.3,90.6,90.6,135.9,135.9c10.1,10.1,22,12.9,35.2,7.6c12.4-5,19.7-16.9,18.1-30.6c-0.6-5.1-2.3-10-3.6-15
		c1.4,0.4,3,0.5,4,1.4c16.7,14.4,34,28.2,49.9,43.4c12,11.5,23,24.3,33.1,37.5c9.9,12.9,18,27.1,26.9,40.8c-2-0.2-4.1-0.1-6.1-0.5
		c-12.3-3-24.6-2.5-36.9-0.2c-24.8,4.6-45.5,16.6-61.9,35.7c-15,17.5-23.8,37.8-25.6,60.7c-1.7,21.7,2.7,42.4,13.8,61.3
		c12.6,21.7,30.3,37.8,54.1,46.6c5.3,1.8,10.6,3.6,15.9,5.4c-16.6,9.8-34.8,15.4-53.3,19.8C329.6,650.9,320.4,652.6,311.3,654.6z"/>
	<path class="st2" d="M438.8,419.9c-8.9-13.6-17.1-27.8-26.9-40.8c-10.1-13.2-21.1-26-33.1-37.5c-15.9-15.2-33.1-29.1-49.9-43.4
		c-1-0.9-2.7-0.9-4-1.4c-13.5-13.6-26.8-27.4-40.5-40.8c-18.4-18.1-10.6-51.6,16-58c12.6-3,24.4-0.2,33.9,9.3
		c10.4,10.4,20.8,20.8,31.2,31.2C420.7,293.7,475.8,348.9,531,404c19.6,19.6,34.5,42.3,42.8,68.9c4,12.7,7.3,25.7,6.9,39.2
		c-0.4,14,0.6,28.2-1.6,41.9c-2.8,17.3-8.5,34.1-17.2,49.7c-17.8,32-43.1,56.1-76.3,71.8c-17.3,8.1-35.5,12.7-54.5,14.7
		c-33,3.6-63.8-3.1-93-18c-9.5-4.8-18-11.8-26.9-17.8c9.1-1.9,18.3-3.6,27.4-5.8c18.6-4.4,36.7-10,53.3-19.8
		c0.7,0.2,1.5,0.4,2.2,0.6c7.7,0.8,15.4,2.7,23,2.2c16.8-1.1,33-4.8,48.1-12.9c21.3-11.5,36.6-28.2,47.2-49.7
		c8.8-17.9,10.3-37,8.8-56.3c-0.7-9.2-4.4-18.1-6.7-27.2c-0.3-1.2-0.6-2.5-1.1-3.7c-7.7-17.4-19-32.1-34.3-43.4
		c-11.7-8.7-24.4-15.5-39.2-17.6C439.6,420.7,439.2,420.3,438.8,419.9z"/>
	<path class="st3" d="M438.8,419.9c0.4,0.4,0.9,0.7,1.3,1.1c3.4,7.2,7.4,14.2,10.1,21.7c3.4,9.3,5.9,19,8.7,28.5c-2.2-2-4.3-4-6.5-6
		c-11-10.1-26.4-10.1-36,0c-9.7,10.2-9.1,25.2,1.5,35.9c13.7,13.8,27.5,27.7,41.3,41.5c0,0.4,0,0.7,0,1.1
		c-1.9,6.3-3.7,12.6-5.8,18.8c-1.6,4.6-3.6,9.1-5.5,13.7c-0.4,0.1-0.8,0.1-1.2,0.2c-3.5-1.9-7.6-3.2-10.5-5.8
		c-7-6.3-13.4-13.4-20.3-19.9c-3.1-2.9-6.6-5.6-10.4-7.2c-9.3-3.8-18.4-2.8-25.8,4.4c-7.5,7.3-12.2,16.2-6.8,26.4
		c3.3,6.4,8.2,12.3,13.3,17.5c5.8,5.9,7.3,12.6,5.2,19.9c-2,7.3-7.8,11-15.3,12c-23.8-8.9-41.4-24.9-54.1-46.6
		c-11-19-15.5-39.6-13.8-61.3c1.8-22.9,10.6-43.2,25.6-60.7c16.5-19.1,37.1-31.2,61.9-35.7c12.3-2.2,24.6-2.7,36.9,0.2
		C434.7,419.9,436.7,419.8,438.8,419.9z"/>
	<path class="st4" d="M376.1,623.6c7.5-1,13.2-4.7,15.3-12c2-7.3,0.6-14-5.2-19.9c-5.1-5.2-10-11.1-13.3-17.5
		c-5.3-10.3-0.7-19.2,6.8-26.4c7.4-7.2,16.5-8.2,25.8-4.4c3.8,1.6,7.4,4.3,10.4,7.2c6.9,6.5,13.3,13.6,20.3,19.9
		c2.9,2.6,6.9,3.9,10.5,5.8c-10.8,20.7-27,36.3-46.7,48.5c-2.1,1.3-3.8,3.2-5.8,4.8c-0.7-0.2-1.5-0.4-2.2-0.6
		C386.7,627.2,381.4,625.4,376.1,623.6z"/>
	<path class="st5" d="M394.2,629.5c1.9-1.6,3.7-3.5,5.8-4.8c19.7-12.2,35.9-27.8,46.7-48.5c0.4-0.1,0.8-0.1,1.2-0.2
		c9.1,0.1,15.4-4.1,18.3-12.1c2.7-7.4,0.4-14.1-7.1-20.4c0-0.3,0-0.7,0-1c1.5-9,4-18.1,4.1-27.1c0.2-13.6-1.2-27.3-2-40.9
		c7,6.9,13.8,14,21.3,20.4c3.5,3,8.1,5.6,12.5,6.2c10.3,1.3,15.7-3.5,19.6-15.4c2.3,9.1,5.9,18,6.7,27.2c1.5,19.3,0,38.4-8.8,56.3
		c-10.6,21.5-25.9,38.2-47.2,49.7c-15.1,8.2-31.3,11.8-48.1,12.9C409.6,632.3,401.8,630.4,394.2,629.5z"/>
	<path class="st3" d="M514.6,485.7c-3.9,11.9-9.3,16.7-19.6,15.4c-4.4-0.6-9-3.2-12.5-6.2c-7.5-6.4-14.2-13.6-21.3-20.4c0,0,0,0,0,0
		c-0.3-0.4-0.7-0.8-1-1.1c-0.4-0.7-0.9-1.4-1.3-2.1c-2.9-9.5-5.3-19.2-8.7-28.5c-2.7-7.5-6.7-14.5-10.1-21.7
		c14.7,2.1,27.5,8.9,39.2,17.6c15.3,11.3,26.6,26,34.3,43.4C514.1,483.1,514.3,484.4,514.6,485.7z"/>
	<path class="st4" d="M458.9,471.2c0.4,0.7,0.9,1.4,1.3,2.1c0.3,0.4,0.7,0.8,1,1.1c0,0,0,0,0,0c0.7,13.7,2.2,27.3,2,40.9
		c-0.1,9.1-2.7,18.1-4.1,27.1c-13.8-13.8-27.5-27.7-41.3-41.5c-10.6-10.7-11.2-25.7-1.5-35.9c9.6-10,25-10,36,0
		C454.6,467.2,456.7,469.2,458.9,471.2z"/>
	<path class="st3" d="M459.1,543.6c7.4,6.2,9.7,12.9,7.1,20.4c-2.9,8-9.3,12.3-18.3,12.1c1.8-4.5,3.9-9,5.5-13.7
		C455.4,556.2,457.1,549.9,459.1,543.6z"/>
</g>
<path class="st6" d="M461.2,474.5c-0.3-0.4-0.7-0.8-1-1.1C460.6,473.7,460.9,474.1,461.2,474.5z"/>
</svg>
